# xmcd
#
# Track frame offsets: 
#        150
#        17512
#        37685
#        54483
#        73207
#        92864
#        110881
#        132701
#        154396
#        169515
#        187636
#        203866
#        220110
#
# Disc length: 3255 seconds
#
# Revision: 2
# Processed by: cddbd v1.5.2PL0 Copyright (c) Steve Scherf et al.
# Submitted via: ExactAudioCopy v0.95b4
#
DISCID=b40cb50d
DTITLE=John Mayer - Room for Squares
DYEAR=2001
DGENRE=Blues
TTITLE0=No Such Thing
TTITLE1=Why Georgia
TTITLE2=My Stupid Mouth
TTITLE3=Your Body is a Wonderland
TTITLE4=Neon
TTITLE5=City Love
TTITLE6=83
TTITLE7=3x5
TTITLE8=Love Song for No One
TTITLE9=Back to You
TTITLE10=Great Indoors
TTITLE11=Not Myself
TTITLE12=St. Patrick's Day
EXTD=YEAR: 2001
EXTT0=
EXTT1=
EXTT2=
EXTT3=
EXTT4=
EXTT5=
EXTT6=
EXTT7=
EXTT8=
EXTT9=
EXTT10=
EXTT11=
EXTT12=
PLAYORDER=
